<svg width="60" height="60" viewBox="0 0 60 60" fill="none" xmlns="http://www.w3.org/2000/svg">
<path d="M59.984 11.1844C59.988 11.1605 59.995 11.1365 59.997 11.1125C60.004 11.0386 59.996 10.9637 59.987 10.8887C59.985 10.8698 59.988 10.8518 59.985 10.8328C59.967 10.7339 59.9341 10.637 59.8851 10.5441C59.8771 10.5281 59.8661 10.5131 59.8572 10.4972C59.8552 10.4952 59.8552 10.4922 59.8542 10.4892C59.8532 10.4872 59.8502 10.4862 59.8492 10.4832C59.8422 10.4722 59.8362 10.4602 59.8292 10.4502C59.7672 10.3593 59.6923 10.2844 59.6084 10.2204C59.5894 10.2065 59.5675 10.1985 59.5475 10.1855C59.4736 10.1365 59.3956 10.0966 59.3117 10.0696C59.2748 10.0576 59.2378 10.0516 59.1998 10.0446C59.1269 10.0296 59.054 10.0226 58.9781 10.0246C58.9381 10.0256 58.9001 10.0276 58.8602 10.0336C58.8342 10.0376 58.8092 10.0336 58.7833 10.0396L0.797183 22.0232C0.38461 22.1092 0.0689359 22.4438 0.00999682 22.8614C-0.0489423 23.2789 0.159842 23.6885 0.532457 23.8853L17.1473 32.6493L20.0613 48.8196C20.0593 48.8315 20.0623 48.8445 20.0613 48.8565C20.0513 48.9364 20.0503 49.0144 20.0603 49.0933C20.0653 49.1332 20.0703 49.1712 20.0803 49.2102C20.1032 49.3051 20.1402 49.394 20.1901 49.4779C20.2001 49.4939 20.2001 49.5128 20.2111 49.5288C20.2141 49.5338 20.2191 49.5378 20.2231 49.5418C20.2361 49.5608 20.2541 49.5758 20.2691 49.5948C20.316 49.6527 20.365 49.7056 20.4209 49.7506C20.4299 49.7576 20.4359 49.7686 20.4459 49.7756C20.4609 49.7866 20.4778 49.7896 20.4928 49.7995C20.5538 49.8395 20.6167 49.8725 20.6836 49.8984C20.7106 49.9084 20.7356 49.9204 20.7636 49.9284C20.8535 49.9544 20.9464 49.9724 21.0403 49.9724C21.0413 49.9724 21.0423 49.9724 21.0433 49.9724C21.0473 49.9724 21.0513 49.9704 21.0553 49.9704C21.0722 49.9714 21.0892 49.9724 21.1062 49.9724C21.3829 49.9724 21.6327 49.8485 21.8175 49.6577L32.885 42.2793L44.4731 49.8115C44.6369 49.9174 44.8267 49.9724 45.0175 49.9724C45.1224 49.9724 45.2293 49.9554 45.3322 49.9214C45.6199 49.8255 45.8496 49.6037 45.9545 49.318L59.9361 11.3683C59.9491 11.3343 59.96 11.2993 59.969 11.2634C59.973 11.2484 59.974 11.2334 59.977 11.2194C59.98 11.2084 59.982 11.1964 59.984 11.1844ZM48.414 17.5609L24.4457 35.1836C24.4068 35.2126 24.3758 35.2486 24.3419 35.2825C24.3289 35.2945 24.3159 35.3045 24.3049 35.3175C24.2839 35.3405 24.2649 35.3635 24.246 35.3884C24.228 35.4124 24.214 35.4374 24.198 35.4624C24.161 35.5223 24.1301 35.5842 24.1061 35.6502C24.1011 35.6631 24.0931 35.6731 24.0891 35.6861C24.0881 35.6901 24.0841 35.6921 24.0831 35.6961L21.336 44.6239L19.1592 32.5454L48.414 17.5609ZM22.8844 46.5459L25.6075 37.5512L29.8472 40.3073L31.0599 41.0955L26.9402 43.8417L22.8844 46.5459ZM51.9903 13.4841L18.0524 30.8671L3.92695 23.4168L51.9903 13.4841ZM44.513 47.455L29.1239 37.4533L26.7933 35.9379L56.9162 13.7888L44.513 47.455Z" fill="#0063FF"/>
</svg>
