<svg width="40" height="40" viewBox="0 0 40 40" fill="none" xmlns="http://www.w3.org/2000/svg">
<path d="M39.9893 7.45629C39.9919 7.4403 39.9966 7.42432 39.9979 7.40833C40.0026 7.35905 39.9973 7.3091 39.9913 7.25916C39.9899 7.2465 39.9919 7.23451 39.9899 7.22186C39.9779 7.15593 39.956 7.09133 39.9233 7.02939C39.918 7.01874 39.9107 7.00875 39.9047 6.99809C39.9034 6.99676 39.9034 6.99476 39.9027 6.99276C39.902 6.99143 39.9 6.99077 39.8994 6.98877C39.8947 6.98144 39.8907 6.97345 39.886 6.96679C39.8447 6.90619 39.7948 6.85624 39.7389 6.81362C39.7262 6.80429 39.7116 6.79896 39.6982 6.79031C39.6489 6.75767 39.597 6.73103 39.5411 6.71305C39.5164 6.70506 39.4918 6.70107 39.4665 6.6964C39.4179 6.68641 39.3692 6.68175 39.3186 6.68308C39.292 6.68375 39.2667 6.68508 39.24 6.68908C39.2227 6.69174 39.2061 6.68908 39.1888 6.69307L0.531374 14.6822C0.256325 14.7394 0.0458759 14.9625 0.00658317 15.2409C-0.0327096 15.5193 0.10648 15.7923 0.35489 15.9235L11.4314 21.7662L13.3741 32.5464C13.3728 32.5544 13.3748 32.563 13.3741 32.571C13.3674 32.6243 13.3668 32.6762 13.3734 32.7288C13.3768 32.7555 13.3801 32.7808 13.3868 32.8068C13.4021 32.87 13.4267 32.9293 13.46 32.9852C13.4667 32.9959 13.4667 33.0086 13.474 33.0192C13.476 33.0225 13.4793 33.0252 13.482 33.0279C13.4906 33.0405 13.5026 33.0505 13.5126 33.0632C13.5439 33.1018 13.5766 33.1371 13.6139 33.1671C13.6198 33.1717 13.6238 33.179 13.6305 33.1837C13.6405 33.191 13.6518 33.193 13.6618 33.1997C13.7024 33.2263 13.7444 33.2483 13.789 33.2656C13.807 33.2723 13.8236 33.2803 13.8423 33.2856C13.9022 33.3029 13.9642 33.3149 14.0268 33.3149C14.0274 33.3149 14.0281 33.3149 14.0288 33.3149C14.0314 33.3149 14.0341 33.3136 14.0368 33.3136C14.0481 33.3142 14.0594 33.3149 14.0707 33.3149C14.2552 33.3149 14.4217 33.2323 14.5449 33.1051L21.9233 28.1862L29.6486 33.2077C29.7578 33.2783 29.8844 33.3149 30.0116 33.3149C30.0815 33.3149 30.1528 33.3036 30.2214 33.2809C30.4132 33.217 30.5663 33.0692 30.6363 32.8787L39.9573 7.57883C39.966 7.55618 39.9733 7.53287 39.9793 7.5089C39.9819 7.49891 39.9826 7.48892 39.9846 7.47959C39.9866 7.47227 39.9879 7.46428 39.9893 7.45629ZM32.2759 11.7072L16.2971 23.4558C16.2711 23.4751 16.2505 23.499 16.2278 23.5217C16.2192 23.5297 16.2105 23.5363 16.2032 23.545C16.1892 23.5603 16.1765 23.5756 16.1639 23.5923C16.1519 23.6083 16.1426 23.6249 16.1319 23.6416C16.1073 23.6815 16.0866 23.7228 16.0707 23.7668C16.0673 23.7754 16.062 23.7821 16.0593 23.7907C16.0587 23.7934 16.056 23.7947 16.0553 23.7974L14.2239 29.7493L12.7727 21.6969L32.2759 11.7072ZM15.2562 31.0306L17.0716 25.0341L19.898 26.8716L20.7065 27.397L17.96 29.2278L15.2562 31.0306ZM34.6601 8.98937L12.0348 20.5781L2.61788 15.6112L34.6601 8.98937ZM29.6753 31.6366L19.4159 24.9689L17.8621 23.9586L37.944 9.19249L29.6753 31.6366Z" fill="white"/>
</svg>
